<?xml version="1.0" encoding="utf-8"?>
<!-- Generator: Adobe Illustrator 16.0.4, SVG Export Plug-In . SVG Version: 6.00 Build 0)  -->
<!DOCTYPE svg PUBLIC "-//W3C//DTD SVG 1.1//EN" "http://www.w3.org/Graphics/SVG/1.1/DTD/svg11.dtd">
<svg version="1.1" id="Layer_1" xmlns="http://www.w3.org/2000/svg" xmlns:xlink="http://www.w3.org/1999/xlink" x="0px" y="0px"
	 width="363px" height="320px" viewBox="0 0 363 320" enable-background="new 0 0 363 320" xml:space="preserve">
<g id="Layer_1_1_">
	<polygon fill="#61AFAF" points="45.255,233.045 44.162,88.85 179.655,9.36 316.241,86.957 317.338,231.152 181.841,310.64 	"/>
</g>
<g id="Layer_3">
	<path fill="#FFFFFF" d="M243.63,144.49c-1.334,18.084,1.166,34.26,7.732,39.502c1.375,1.1,10.234,1.229,11.812,1.346
		c9.134,0.674,11.904-16.541,13.521-38.406c1.41-19.12-4.027-32.299-11.28-36.558c-1.04-0.611-2.722-1.314-3.866-1.398
		C252.415,108.3,245.243,122.627,243.63,144.49z"/>
	<path fill="#FFFFFF" d="M123.561,144.49c1.333,18.084-1.167,34.26-7.733,39.502c-1.374,1.1-10.234,1.229-11.813,1.346
		c-9.132,0.674-11.904-16.541-13.519-38.406c-1.409-19.12,4.029-32.299,11.281-36.558c1.041-0.611,2.721-1.314,3.867-1.398
		C114.775,108.3,121.948,122.627,123.561,144.49z"/>
	<path fill="#FFFFFF" d="M266.46,145.983c0,20.847-10.443,49.962-19.632,66.75c-1.368,2.5-118.868,6.5-123.138,2.428
		c-14.602-13.932-21.73-47.17-21.73-69.179c0-46.527,36.825-84.25,82.25-84.25C229.636,61.733,266.46,99.453,266.46,145.983z"/>
	<path fill="#61AFAF" d="M217.867,145.899c0,19.054-15.863,34.498-35.43,34.498c-19.569,0-35.432-15.445-35.432-34.498
		c0-19.052,15.861-34.498,35.432-34.498C202.004,111.401,217.867,126.847,217.867,145.899z"/>
	<path fill="none" stroke="#FFFFFF" stroke-miterlimit="10" d="M88.648,154.577c0,1.74-1.413,3.153-3.156,3.153l0,0
		c-1.743,0-3.156-1.413-3.156-3.153l0,0c0-1.743,1.413-3.156,3.156-3.156l0,0C87.234,151.421,88.648,152.834,88.648,154.577
		L88.648,154.577z"/>
	<path fill="none" stroke="#FFFFFF" stroke-miterlimit="10" d="M80.085,143.858c0,1.729-1.399,3.125-3.125,3.125l0,0
		c-1.726,0-3.125-1.396-3.125-3.125l0,0c0-1.726,1.399-3.125,3.125-3.125l0,0C78.686,140.733,80.085,142.132,80.085,143.858
		L80.085,143.858z"/>
	<path fill="none" stroke="#FFFFFF" stroke-miterlimit="10" d="M84.21,127.046c0,2.312-1.875,4.188-4.188,4.188l0,0
		c-2.313,0-4.188-1.875-4.188-4.188l0,0c0-2.313,1.875-4.188,4.188-4.188l0,0C82.335,122.858,84.21,124.733,84.21,127.046
		L84.21,127.046z"/>
	<path fill="none" stroke="#FFFFFF" stroke-miterlimit="10" d="M90.585,92.171c0,2.796-2.267,5.062-5.063,5.062l0,0
		c-2.796,0-5.063-2.267-5.063-5.062l0,0c0-2.796,2.267-5.063,5.063-5.063l0,0C88.318,87.108,90.585,89.375,90.585,92.171
		L90.585,92.171z"/>
	<path fill="none" stroke="#FFFFFF" stroke-miterlimit="10" d="M73.835,111.546c0,2.175-1.763,3.938-3.938,3.938l0,0
		c-2.174,0-3.938-1.763-3.938-3.938l0,0c0-2.174,1.763-3.938,3.938-3.938l0,0C72.072,107.608,73.835,109.371,73.835,111.546
		L73.835,111.546z"/>
	<path fill="none" stroke="#FFFFFF" stroke-miterlimit="10" d="M84.96,105.483c0,1.864-1.511,3.375-3.375,3.375l0,0
		c-1.864,0-3.375-1.511-3.375-3.375l0,0c0-1.861,1.511-3.375,3.375-3.375l0,0C83.449,102.108,84.96,103.619,84.96,105.483
		L84.96,105.483z"/>
</g>
<g id="Layer_2">
	<path fill="#FFFFFF" d="M248.46,219.232c-0.25,22.5,34.546-16.717,27.75-2.5c-17.541,36.699-53.359,57.5-96.75,57.5
		c-41.387,0-77.387-23.062-95.845-57.043c-8.389-15.443,36.345,22.857,36.345,4.043c0-0.5,1.301-0.5,61.5-0.5
		S248.505,215.203,248.46,219.232z"/>
	<g>
		<path fill="none" stroke="#FFFFFF" stroke-width="3" stroke-miterlimit="10" d="M209.46,144.483c0,6.489-5.262,11.75-11.75,11.75
			h-32c-6.489,0-11.75-5.261-11.75-11.75l0,0c0-6.486,5.261-11.75,11.75-11.75h32C204.198,132.733,209.46,137.994,209.46,144.483
			L209.46,144.483z"/>
		<path fill="none" stroke="#FFFFFF" stroke-width="3" stroke-miterlimit="10" d="M181.71,116.733c6.489,0,11.75,5.264,11.75,11.75
			v32c0,6.49-5.261,11.75-11.75,11.75l0,0c-6.489,0-11.75-5.26-11.75-11.75v-32C169.96,121.994,175.221,116.733,181.71,116.733
			L181.71,116.733z"/>
	</g>
	<rect x="119.46" y="212.482" fill="#61AFAF" width="129.5" height="8.75"/>
</g>
</svg>
