<?xml version="1.0" encoding="utf-8"?>
<!-- Generator: Adobe Illustrator 16.0.4, SVG Export Plug-In . SVG Version: 6.00 Build 0)  -->
<!DOCTYPE svg PUBLIC "-//W3C//DTD SVG 1.1//EN" "http://www.w3.org/Graphics/SVG/1.1/DTD/svg11.dtd">
<svg version="1.1" id="Layer_1" xmlns="http://www.w3.org/2000/svg" xmlns:xlink="http://www.w3.org/1999/xlink" x="0px" y="0px"
	 width="160px" height="20px" viewBox="0 0 160 20" enable-background="new 0 0 160 20" xml:space="preserve">
<g>
	<path fill="#FFFFFF" d="M61.671,4.224c-0.769-0.429-1.971-0.646-3.616-0.646c-0.813,0-1.63,0.065-2.452,0.193
		c-0.602,0.092-0.664,0.107-1.038,0.188c-0.77,0.168-0.888,0.938-0.888,0.938L53.43,5.914c-0.141,0.65,0.229,0.624,0.395,0.573
		c0.336-0.102,0.519-0.202,1.204-0.358c0.655-0.148,1.347-0.259,1.9-0.255c0.81,0,1.426,0.089,1.835,0.259
		c0.41,0.179,0.612,0.483,0.612,0.918c0.002,0.103,0.004,0.201-0.033,0.286c-0.034,0.08-0.099,0.157-0.292,0.183
		c-1.156,0.069-1.986,0.174-2.985,0.32c-0.986,0.139-1.849,0.377-2.57,0.707c-0.769,0.341-1.344,0.797-1.741,1.375
		c-0.385,0.581-0.579,1.285-0.581,2.113c0,0.783,0.282,1.421,0.827,1.917c0.551,0.489,1.268,0.731,2.135,0.731
		c0.541-0.004,0.965-0.043,1.269-0.117c0.302-0.076,0.629-0.186,0.976-0.334c0.259-0.109,0.539-0.267,0.833-0.463
		c0.296-0.196,0.5-0.338,0.762-0.509l0.011,0.017l-0.074,0.326c0,0.002-0.004,0.004-0.004,0.008l0.001,0.006
		c-0.084,0.394,0.152,0.719,0.541,0.758l0.005,0.007h0.034l0.001,0.002c0.259,0,1.144-0.001,1.558-0.002h0.289
		c0.019,0,0.021-0.006,0.028-0.01c0.397-0.049,0.777-0.372,0.867-0.761l1.478-6.379c0.034-0.15,0.061-0.324,0.077-0.523
		c0.019-0.202,0.04-0.367,0.034-0.487C62.824,5.32,62.437,4.653,61.671,4.224z M58.089,11.825c-0.251,0.157-0.517,0.294-0.794,0.409
		c-0.374,0.149-0.729,0.229-1.056,0.229c-0.504,0-0.889-0.071-1.151-0.224c-0.262-0.146-0.399-0.396-0.395-0.754
		c0-0.414,0.096-0.736,0.294-0.989c0.199-0.243,0.496-0.438,0.863-0.583c0.366-0.125,0.815-0.227,1.335-0.3
		c0.461-0.058,1.374-0.163,1.49-0.164c0.116-0.001,0.194-0.066,0.142,0.245c-0.022,0.136-0.286,1.217-0.406,1.708
		C58.375,11.555,58.179,11.77,58.089,11.825z"/>
	<path fill="#FFFFFF" d="M36.242,3.72c-0.433,0-1.002,0.351-1.271,0.775c0,0-2.9,4.972-3.185,5.469
		c-0.155,0.267-0.312,0.097-0.338-0.002c-0.021-0.121-0.899-5.434-0.899-5.434C30.45,4.1,30.004,3.733,29.445,3.735l-1.809,0.003
		c-0.436,0-0.708,0.349-0.611,0.771c0,0,1.382,7.836,1.652,9.681c0.134,1.018-0.014,1.199-0.014,1.199l-1.793,3.125
		c-0.262,0.424-0.119,0.771,0.315,0.771l2.096-0.002c0.434,0,1.009-0.345,1.267-0.771L38.61,4.876c0,0,0.772-1.165,0.061-1.155
		C38.187,3.727,36.242,3.72,36.242,3.72"/>
	<path fill="#FFFFFF" d="M10.791,6.491c-0.61,0.446-1.455,0.67-2.553,0.67H7.741c-0.437,0-0.713-0.347-0.617-0.773l0.609-2.625
		C7.826,3.34,8.262,2.989,8.7,2.993L9.362,2.99c0.773,0,1.362,0.132,1.758,0.396c0.391,0.256,0.59,0.661,0.583,1.206
		C11.715,5.409,11.404,6.044,10.791,6.491 M15.161,2.445c-0.251-0.49-0.629-0.889-1.11-1.19c-0.5-0.308-1.08-0.521-1.757-0.649
		c-0.681-0.122-1.477-0.181-2.389-0.19L5.681,0.419c-0.439,0.006-0.87,0.35-0.971,0.772L1.861,13.575
		c-0.099,0.424,0.176,0.774,0.613,0.774h2.024c0.438,0,0.871-0.343,0.969-0.774l0.698-3.007C6.259,10.15,6.692,9.802,7.13,9.802
		h0.579c2.476-0.002,4.395-0.509,5.775-1.521c1.377-1.012,2.067-2.353,2.063-4.01C15.55,3.541,15.424,2.932,15.161,2.445"/>
	<path fill="#FFFFFF" d="M47.538,6.542c-0.606,0.441-1.457,0.663-2.553,0.663h-0.504c-0.435,0.005-0.716-0.348-0.613-0.771
		l0.607-2.629c0.091-0.416,0.533-0.77,0.962-0.767l0.665-0.003c0.776,0.003,1.358,0.133,1.759,0.392
		c0.395,0.261,0.586,0.667,0.588,1.207C48.452,5.457,48.147,6.09,47.538,6.542 M51.906,2.49c-0.252-0.491-0.633-0.886-1.115-1.193
		c-0.493-0.307-1.08-0.521-1.759-0.646c-0.671-0.118-1.471-0.186-2.381-0.188l-4.234,0.002c-0.437,0.008-0.864,0.351-0.964,0.772
		l-2.847,12.388c-0.104,0.422,0.179,0.771,0.608,0.77l2.031-0.002c0.431,0.002,0.87-0.346,0.972-0.768l0.687-3.006
		c0.097-0.422,0.534-0.774,0.973-0.769h0.577c2.479,0,4.401-0.508,5.776-1.522c1.373-1.019,2.062-2.354,2.062-4.017
		C52.288,3.586,52.164,2.975,51.906,2.49"/>
	<path fill="#FFFFFF" d="M24.917,4.214c-0.769-0.429-1.97-0.645-3.615-0.645c-0.813,0-1.631,0.064-2.452,0.191
		c-0.603,0.092-0.664,0.107-1.038,0.189c-0.77,0.168-0.888,0.938-0.888,0.938l-0.248,1.017c-0.14,0.65,0.231,0.623,0.396,0.572
		c0.335-0.102,0.518-0.202,1.204-0.358c0.654-0.147,1.347-0.258,1.898-0.255c0.811,0,1.426,0.088,1.836,0.259
		c0.41,0.179,0.612,0.483,0.612,0.918c0.003,0.104,0.004,0.202-0.032,0.286c-0.034,0.081-0.099,0.157-0.293,0.183
		c-1.155,0.07-1.984,0.175-2.985,0.32c-0.986,0.139-1.849,0.378-2.569,0.707c-0.77,0.34-1.343,0.797-1.74,1.375
		c-0.387,0.581-0.581,1.284-0.582,2.112c0,0.783,0.282,1.422,0.825,1.918c0.552,0.49,1.268,0.731,2.135,0.731
		c0.542-0.004,0.966-0.044,1.271-0.118c0.301-0.076,0.629-0.184,0.975-0.334c0.259-0.109,0.538-0.265,0.833-0.462
		c0.295-0.196,0.5-0.337,0.764-0.509l0.008,0.018l-0.074,0.323c0,0.004-0.004,0.007-0.004,0.011l0.003,0.004
		c-0.084,0.395,0.151,0.721,0.54,0.759l0.004,0.008h0.034l0.001,0.002c0.259,0,1.145-0.001,1.558-0.002h0.289
		c0.019,0,0.022-0.007,0.028-0.013c0.398-0.049,0.777-0.371,0.868-0.758l1.478-6.38c0.033-0.149,0.061-0.323,0.075-0.521
		c0.02-0.203,0.041-0.368,0.036-0.488C26.071,5.311,25.683,4.643,24.917,4.214z M21.335,11.814c-0.251,0.16-0.516,0.295-0.794,0.41
		c-0.374,0.149-0.729,0.229-1.056,0.229c-0.502,0-0.889-0.071-1.151-0.224c-0.261-0.146-0.399-0.396-0.395-0.754
		c0-0.414,0.097-0.736,0.295-0.989c0.2-0.243,0.495-0.438,0.862-0.584c0.367-0.125,0.818-0.225,1.335-0.299
		c0.461-0.058,1.375-0.163,1.491-0.164c0.116-0.001,0.194-0.066,0.142,0.245c-0.022,0.135-0.286,1.218-0.407,1.708
		C21.62,11.545,21.424,11.759,21.335,11.814z"/>
	<g>
		<g>
			<path fill="#FFFFFF" d="M68.648,0.565h-1.811c-0.001,0-0.001,0-0.002,0h-0.001c-0.401,0-0.798,0.3-0.931,0.686
				c-0.011,0.029-0.031,0.055-0.038,0.084c0,0-0.045,0.206-0.123,0.558l-2.5,11.333c-0.048,0.211-0.08,0.348-0.09,0.387l0.005,0.007
				c-0.085,0.39,0.151,0.706,0.533,0.748l0.012,0.016h1.879c0.395,0,0.787-0.293,0.926-0.67c0.013-0.034,0.037-0.063,0.045-0.101
				l2.713-12.277L69.26,1.334C69.352,0.914,69.082,0.565,68.648,0.565z"/>
		</g>
	</g>
	<g>
		<path fill="#FFFFFF" d="M72.077,3.064c-0.062,0.017-0.128,0.03-0.203,0.041c-0.073,0.01-0.14,0.016-0.196,0.016
			c-0.202,0-0.354-0.054-0.459-0.162c-0.105-0.108-0.157-0.282-0.157-0.521V1.391h-0.224V1.112h0.224V0.546h0.332v0.566h0.684v0.279
			h-0.684v0.898c0,0.103,0.003,0.184,0.007,0.242c0.005,0.058,0.022,0.113,0.05,0.163c0.025,0.047,0.061,0.082,0.106,0.103
			c0.046,0.022,0.115,0.033,0.208,0.033c0.054,0,0.11-0.008,0.17-0.024c0.058-0.016,0.101-0.029,0.126-0.04h0.017L72.077,3.064
			L72.077,3.064z"/>
		<path fill="#FFFFFF" d="M75.353,3.083h-0.332V1.96c0-0.084-0.003-0.166-0.011-0.245c-0.007-0.079-0.024-0.142-0.049-0.189
			c-0.026-0.05-0.065-0.088-0.115-0.114c-0.051-0.026-0.124-0.039-0.219-0.039c-0.093,0-0.186,0.022-0.279,0.069
			c-0.093,0.046-0.185,0.105-0.279,0.177c0.004,0.027,0.007,0.059,0.01,0.095c0.002,0.036,0.003,0.071,0.003,0.106v1.261H73.75V1.96
			c0-0.087-0.005-0.169-0.011-0.248c-0.008-0.079-0.025-0.141-0.049-0.188c-0.028-0.051-0.065-0.089-0.117-0.114
			c-0.05-0.026-0.124-0.038-0.218-0.038c-0.091,0-0.181,0.022-0.273,0.067C72.991,1.485,72.9,1.542,72.81,1.611v1.471h-0.332v-1.97
			h0.332v0.219c0.104-0.086,0.207-0.153,0.309-0.201c0.104-0.048,0.212-0.072,0.329-0.072c0.133,0,0.249,0.028,0.341,0.084
			c0.094,0.057,0.163,0.135,0.209,0.235c0.134-0.113,0.256-0.194,0.367-0.244c0.11-0.05,0.229-0.075,0.354-0.075
			c0.216,0,0.375,0.066,0.479,0.197c0.103,0.131,0.155,0.314,0.155,0.549V3.083z"/>
	</g>
</g>
<line fill="none" stroke="#FFFFFF" stroke-miterlimit="10" x1="83.75" y1="0.565" x2="83.75" y2="14.686"/>
<g enable-background="new    ">
	<path fill="#FFFFFF" d="M99.32,7.375c0,2.782-1.691,4.258-3.754,4.258c-2.135,0-3.635-1.655-3.635-4.102
		c0-2.566,1.596-4.246,3.754-4.246C97.893,3.285,99.32,4.977,99.32,7.375z M93.047,7.507c0,1.728,0.936,3.274,2.579,3.274
		c1.655,0,2.591-1.523,2.591-3.358c0-1.606-0.84-3.286-2.579-3.286C93.91,4.137,93.047,5.732,93.047,7.507z"/>
	<path fill="#FFFFFF" d="M100.644,7.591c0-0.743-0.024-1.343-0.048-1.895h0.947l0.048,0.995h0.024
		c0.432-0.707,1.115-1.127,2.062-1.127c1.403,0,2.459,1.188,2.459,2.95c0,2.087-1.271,3.118-2.639,3.118
		c-0.768,0-1.439-0.336-1.787-0.911h-0.023v3.154h-1.044V7.591z M101.688,9.139c0,0.155,0.023,0.3,0.047,0.432
		c0.192,0.731,0.828,1.235,1.584,1.235c1.115,0,1.763-0.912,1.763-2.243c0-1.163-0.611-2.159-1.728-2.159
		c-0.719,0-1.391,0.517-1.595,1.308c-0.036,0.132-0.071,0.288-0.071,0.432V9.139z"/>
	<path fill="#FFFFFF" d="M108.059,8.79c0.024,1.428,0.936,2.016,1.991,2.016c0.755,0,1.212-0.132,1.606-0.3l0.181,0.755
		c-0.372,0.168-1.007,0.36-1.931,0.36c-1.787,0-2.855-1.176-2.855-2.927s1.032-3.13,2.723-3.13c1.896,0,2.399,1.667,2.399,2.734
		c0,0.216-0.024,0.384-0.036,0.491H108.059z M111.153,8.035c0.012-0.672-0.276-1.716-1.464-1.716c-1.066,0-1.535,0.984-1.619,1.716
		H111.153z"/>
	<path fill="#FFFFFF" d="M113.482,7.268c0-0.6-0.012-1.092-0.047-1.571h0.936l0.06,0.959h0.024c0.287-0.552,0.959-1.091,1.918-1.091
		c0.804,0,2.051,0.479,2.051,2.471v3.466h-1.055V8.155c0-0.936-0.348-1.716-1.344-1.716c-0.695,0-1.235,0.492-1.415,1.08
		c-0.048,0.132-0.071,0.312-0.071,0.491v3.49h-1.057V7.268z"/>
	<path fill="#FFFFFF" d="M122.579,10.229c0.468,0.288,1.151,0.528,1.871,0.528c1.067,0,1.69-0.564,1.69-1.38
		c0-0.756-0.432-1.188-1.522-1.606c-1.319-0.468-2.135-1.151-2.135-2.291c0-1.26,1.043-2.195,2.614-2.195
		c0.828,0,1.428,0.192,1.787,0.396l-0.288,0.852c-0.264-0.145-0.804-0.384-1.535-0.384c-1.103,0-1.522,0.659-1.522,1.211
		c0,0.756,0.491,1.127,1.606,1.56c1.367,0.527,2.063,1.187,2.063,2.374c0,1.248-0.924,2.327-2.831,2.327
		c-0.779,0-1.631-0.229-2.062-0.516L122.579,10.229z"/>
	<path fill="#FFFFFF" d="M133.928,8.551c0,2.146-1.486,3.082-2.891,3.082c-1.57,0-2.782-1.151-2.782-2.986
		c0-1.942,1.271-3.082,2.878-3.082C132.801,5.564,133.928,6.775,133.928,8.551z M129.322,8.61c0,1.271,0.732,2.231,1.764,2.231
		c1.007,0,1.763-0.948,1.763-2.255c0-0.983-0.491-2.231-1.739-2.231C129.862,6.355,129.322,7.507,129.322,8.61z"/>
	<path fill="#FFFFFF" d="M140.12,9.918c0,0.6,0.012,1.127,0.048,1.583h-0.936l-0.061-0.947h-0.023
		c-0.275,0.468-0.887,1.079-1.919,1.079c-0.911,0-2.003-0.504-2.003-2.543V5.696h1.056V8.91c0,1.104,0.336,1.848,1.296,1.848
		c0.707,0,1.199-0.492,1.391-0.96c0.061-0.156,0.096-0.348,0.096-0.54V5.696h1.056V9.918z"/>
	<path fill="#FFFFFF" d="M141.875,7.507c0-0.684-0.013-1.271-0.049-1.811h0.924l0.036,1.14h0.048
		c0.264-0.78,0.899-1.271,1.607-1.271c0.119,0,0.203,0.012,0.3,0.036v0.995c-0.108-0.024-0.216-0.036-0.36-0.036
		c-0.743,0-1.271,0.563-1.415,1.355c-0.024,0.144-0.048,0.312-0.048,0.491v3.095h-1.043V7.507z"/>
	<path fill="#FFFFFF" d="M149.816,11.285c-0.275,0.144-0.888,0.336-1.667,0.336c-1.751,0-2.891-1.188-2.891-2.963
		c0-1.787,1.224-3.082,3.118-3.082c0.624,0,1.176,0.156,1.463,0.3l-0.239,0.815c-0.252-0.144-0.647-0.275-1.224-0.275
		c-1.331,0-2.051,0.983-2.051,2.194c0,1.344,0.863,2.171,2.016,2.171c0.6,0,0.995-0.156,1.295-0.288L149.816,11.285z"/>
	<path fill="#FFFFFF" d="M151.57,8.79c0.024,1.428,0.936,2.016,1.991,2.016c0.755,0,1.212-0.132,1.606-0.3l0.181,0.755
		c-0.372,0.168-1.007,0.36-1.931,0.36c-1.787,0-2.855-1.176-2.855-2.927s1.032-3.13,2.723-3.13c1.896,0,2.399,1.667,2.399,2.734
		c0,0.216-0.024,0.384-0.036,0.491H151.57z M154.665,8.035c0.012-0.672-0.276-1.716-1.464-1.716c-1.066,0-1.535,0.984-1.619,1.716
		H154.665z"/>
</g>
</svg>
