<?xml version="1.0" encoding="utf-8"?>
<!-- Generator: Adobe Illustrator 16.0.0, SVG Export Plug-In . SVG Version: 6.00 Build 0)  -->
<!DOCTYPE svg PUBLIC "-//W3C//DTD SVG 1.1//EN" "http://www.w3.org/Graphics/SVG/1.1/DTD/svg11.dtd">
<svg version="1.1" xmlns="http://www.w3.org/2000/svg" xmlns:xlink="http://www.w3.org/1999/xlink" x="0px" y="0px" width="363px"
	 height="393px" viewBox="0 0 363 393" enable-background="new 0 0 363 393" xml:space="preserve">
<g id="Layer_1">
	<polygon fill="#3D7A3C" points="33.795,268.811 32.702,124.617 168.195,45.127 304.781,122.724 305.878,266.919 170.381,346.407 	
		"/>
</g>
<g id="Layer_3">
	<path fill="#FFFFFF" d="M232.17,180.257c-1.334,18.084,1.166,34.258,7.733,39.502c1.374,1.097,10.234,1.226,11.813,1.343
		c9.131,0.674,11.904-16.54,13.519-38.405c1.409-19.12-4.028-32.299-11.281-36.558c-1.04-0.611-2.722-1.314-3.866-1.398
		C240.955,144.067,233.783,158.394,232.17,180.257z"/>
	<path fill="#FFFFFF" d="M112.101,180.257c1.333,18.084-1.167,34.258-7.733,39.502c-1.374,1.097-10.234,1.226-11.813,1.343
		c-9.132,0.674-11.904-16.54-13.519-38.405c-1.409-19.12,4.029-32.299,11.281-36.558c1.041-0.611,2.721-1.314,3.867-1.398
		C103.315,144.067,110.488,158.394,112.101,180.257z"/>
	<path fill="#FFFFFF" d="M255,181.75c0,20.844-10.444,49.962-19.632,66.75C234,251,116.5,255,112.23,250.927
		C97.628,236.998,90.5,203.759,90.5,181.75c0-46.53,36.825-84.25,82.25-84.25C218.176,97.5,255,135.22,255,181.75z"/>
	<path fill="#3D7A3C" d="M206.407,181.666c0,19.052-15.863,34.497-35.429,34.497c-19.57,0-35.432-15.445-35.432-34.497
		c0-19.052,15.861-34.498,35.432-34.498C190.544,147.168,206.407,162.614,206.407,181.666z"/>
	<path fill="none" stroke="#FFFFFF" stroke-miterlimit="10" d="M77.188,190.344c0,1.743-1.413,3.156-3.156,3.156l0,0
		c-1.743,0-3.156-1.413-3.156-3.156l0,0c0-1.743,1.413-3.156,3.156-3.156l0,0C75.774,187.188,77.188,188.601,77.188,190.344
		L77.188,190.344z"/>
	<path fill="none" stroke="#FFFFFF" stroke-miterlimit="10" d="M68.625,179.625c0,1.726-1.399,3.125-3.125,3.125l0,0
		c-1.726,0-3.125-1.399-3.125-3.125l0,0c0-1.726,1.399-3.125,3.125-3.125l0,0C67.226,176.5,68.625,177.899,68.625,179.625
		L68.625,179.625z"/>
	<path fill="none" stroke="#FFFFFF" stroke-miterlimit="10" d="M72.75,162.813c0,2.313-1.875,4.188-4.188,4.188l0,0
		c-2.313,0-4.188-1.875-4.188-4.188l0,0c0-2.313,1.875-4.188,4.188-4.188l0,0C70.875,158.625,72.75,160.5,72.75,162.813
		L72.75,162.813z"/>
	<path fill="none" stroke="#FFFFFF" stroke-miterlimit="10" d="M79.125,127.938c0,2.796-2.267,5.063-5.063,5.063l0,0
		c-2.796,0-5.063-2.267-5.063-5.063l0,0c0-2.796,2.267-5.063,5.063-5.063l0,0C76.858,122.875,79.125,125.142,79.125,127.938
		L79.125,127.938z"/>
	<path fill="none" stroke="#FFFFFF" stroke-miterlimit="10" d="M62.375,147.313c0,2.175-1.763,3.938-3.938,3.938l0,0
		c-2.174,0-3.938-1.763-3.938-3.938l0,0c0-2.174,1.763-3.938,3.938-3.938l0,0C60.612,143.375,62.375,145.138,62.375,147.313
		L62.375,147.313z"/>
	<path fill="none" stroke="#FFFFFF" stroke-miterlimit="10" d="M73.5,141.25c0,1.864-1.511,3.375-3.375,3.375l0,0
		c-1.864,0-3.375-1.511-3.375-3.375l0,0c0-1.864,1.511-3.375,3.375-3.375l0,0C71.989,137.875,73.5,139.386,73.5,141.25L73.5,141.25z
		"/>
</g>
<g id="Layer_2">
	<path fill="#FFFFFF" d="M237,255c-0.25,22.5,34.546-16.718,27.75-2.5C247.209,289.199,211.39,310,168,310
		c-41.387,0-77.387-23.066-95.845-57.043C63.766,237.512,108.5,275.813,108.5,257c0-0.5,1.301-0.5,61.5-0.5S237.045,250.969,237,255
		z"/>
	<g>
		<path fill="none" stroke="#FFFFFF" stroke-width="3" stroke-miterlimit="10" d="M198,180.25c0,6.489-5.261,11.75-11.75,11.75h-32
			c-6.489,0-11.75-5.261-11.75-11.75l0,0c0-6.489,5.261-11.75,11.75-11.75h32C192.739,168.5,198,173.761,198,180.25L198,180.25z"/>
		<path fill="none" stroke="#FFFFFF" stroke-width="3" stroke-miterlimit="10" d="M170.25,152.5c6.489,0,11.75,5.261,11.75,11.75v32
			c0,6.489-5.261,11.75-11.75,11.75l0,0c-6.489,0-11.75-5.261-11.75-11.75v-32C158.5,157.761,163.761,152.5,170.25,152.5
			L170.25,152.5z"/>
	</g>
	<rect x="108" y="248.25" fill="#3D7A3C" width="129.5" height="8.75"/>
</g>
</svg>
