<?xml version="1.0" encoding="utf-8"?>
<!-- Generator: Adobe Illustrator 16.0.0, SVG Export Plug-In . SVG Version: 6.00 Build 0)  -->
<!DOCTYPE svg PUBLIC "-//W3C//DTD SVG 1.1//EN" "http://www.w3.org/Graphics/SVG/1.1/DTD/svg11.dtd">
<svg version="1.1" id="Layer_1" xmlns="http://www.w3.org/2000/svg" xmlns:xlink="http://www.w3.org/1999/xlink" x="0px" y="0px"
	 width="677.863px" height="77.916px" viewBox="3.946 0 677.863 77.916" enable-background="new 3.946 0 677.863 77.916"
	 xml:space="preserve">
<g>
	<g>
		<g>
			<path fill="#3D7A3B" d="M196.967,3.333h-22.251c-1.521,0-2.815,1.107-3.053,2.609l-8.998,57.053
				c-0.177,1.125,0.692,2.146,1.832,2.146h11.417c1.064,0,1.973-0.775,2.137-1.828l2.553-16.174
				c0.236-1.505,1.531-2.609,3.054-2.609h7.041c14.655,0,23.112-7.094,25.323-21.151c0.996-6.147,0.041-10.979-2.838-14.361
				C210.02,5.299,204.411,3.333,196.967,3.333z M199.535,24.17c-1.217,7.987-7.314,7.987-13.217,7.987h-3.355l2.354-14.912
				c0.144-0.901,0.92-1.565,1.832-1.565h1.539c4.017,0,7.811,0,9.766,2.288C199.624,19.337,199.977,21.366,199.535,24.17z"/>
			<path fill="#3D7A3B" d="M38.271,3.333h-22.25c-1.521,0-2.816,1.107-3.054,2.609L3.969,62.996
				c-0.177,1.125,0.693,2.145,1.833,2.145h10.624c1.521,0,2.816-1.106,3.054-2.611l2.428-15.391
				c0.237-1.504,1.532-2.609,3.053-2.609h7.041c14.656,0,23.114-7.092,25.325-21.15c0.995-6.148,0.04-10.979-2.838-14.361
				C51.323,5.299,45.714,3.333,38.271,3.333z M40.838,24.17c-1.216,7.987-7.316,7.987-13.215,7.987h-3.357l2.354-14.912
				c0.143-0.901,0.919-1.565,1.832-1.565h1.539c4.016,0,7.81,0,9.765,2.288C40.927,19.337,41.281,21.366,40.838,24.17z"/>
			<path fill="#3D7A3B" d="M104.773,23.915H94.121c-0.913,0-1.689,0.664-1.833,1.565L91.82,28.46l-0.745-1.079
				c-2.308-3.35-7.45-4.468-12.585-4.468c-11.77,0-21.826,8.92-23.783,21.431c-1.019,6.24,0.427,12.205,3.966,16.367
				c3.251,3.826,7.891,5.418,13.419,5.418c9.487,0,14.75-6.096,14.75-6.096l-0.476,2.961c-0.179,1.127,0.69,2.146,1.832,2.146h9.595
				c1.521,0,2.814-1.107,3.053-2.609l5.76-36.473C106.784,24.934,105.914,23.915,104.773,23.915z M89.926,44.652
				C88.896,50.74,84.064,54.826,77.9,54.826c-3.09,0-5.564-0.994-7.154-2.875c-1.576-1.865-2.169-4.523-1.669-7.484
				c0.959-6.033,5.87-10.251,11.94-10.251c3.024,0,5.481,1.005,7.103,2.903C89.751,39.032,90.393,41.708,89.926,44.652z"/>
			<path fill="#3D7A3B" d="M263.471,23.915h-10.654c-0.912,0-1.689,0.664-1.832,1.565l-0.469,2.979l-0.744-1.079
				c-2.309-3.35-7.451-4.468-12.586-4.468c-11.771,0-21.826,8.92-23.781,21.431c-1.02,6.24,0.427,12.205,3.966,16.367
				c3.251,3.826,7.892,5.418,13.419,5.418c9.486,0,14.75-6.096,14.75-6.096l-0.477,2.961c-0.179,1.127,0.691,2.146,1.832,2.146
				h9.596c1.521,0,2.814-1.107,3.053-2.609l5.76-36.473C265.48,24.934,264.609,23.915,263.471,23.915z M248.623,44.652
				c-1.029,6.088-5.861,10.174-12.025,10.174c-3.091,0-5.563-0.994-7.154-2.875c-1.575-1.865-2.17-4.523-1.67-7.484
				c0.961-6.033,5.869-10.251,11.939-10.251c3.025,0,5.482,1.005,7.104,2.903C248.448,39.032,249.089,41.708,248.623,44.652z"/>
			<path fill="#3D7A3B" d="M161.52,23.915h-10.709c-1.023,0-1.981,0.508-2.558,1.354L133.48,47.027l-6.26-20.907
				c-0.393-1.31-1.597-2.206-2.962-2.206h-10.526c-1.271,0-2.166,1.25-1.756,2.454l11.791,34.612L112.677,76.63
				c-0.87,1.229,0.009,2.927,1.515,2.927h10.697c1.014,0,1.963-0.496,2.541-1.33l35.614-51.399
				C163.896,25.598,163.016,23.915,161.52,23.915z"/>
			<path fill="#3D7A3B" d="M276.029,4.9l-9.133,58.096c-0.178,1.127,0.692,2.145,1.832,2.145h9.185c1.521,0,2.815-1.106,3.054-2.608
				l9.004-57.054c0.178-1.126-0.691-2.144-1.832-2.144h-10.277C276.948,3.333,276.17,3.998,276.029,4.9z"/>
		</g>
	</g>
</g>
<g>
	<path fill="#3D7A3B" d="M326.233,43.975c0.906-2.976,2.219-5.841,3.936-8.593c1.715-2.752,3.773-5.188,6.173-7.308
		s5.099-3.812,8.093-5.076c2.992-1.264,6.226-1.896,9.689-1.896s6.309,0.633,8.535,1.896c2.223,1.264,3.887,2.957,4.994,5.076
		c1.104,2.121,1.678,4.556,1.715,7.308s-0.398,5.617-1.306,8.593c-0.907,2.978-2.221,5.84-3.938,8.592
		c-1.715,2.752-3.773,5.188-6.174,7.31c-2.398,2.119-5.099,3.812-8.09,5.074c-2.996,1.264-6.228,1.896-9.692,1.896
		s-6.311-0.633-8.533-1.896c-2.225-1.263-3.89-2.955-4.996-5.074c-1.104-2.121-1.678-4.558-1.715-7.31
		S325.325,46.951,326.233,43.975z M332.042,43.975c-0.671,2.201-1.049,4.371-1.129,6.512c-0.083,2.142,0.227,4.066,0.927,5.779
		s1.852,3.088,3.45,4.129c1.599,1.039,3.723,1.56,6.374,1.56c2.65,0,5.091-0.521,7.326-1.56c2.231-1.041,4.223-2.416,5.967-4.129
		c1.746-1.713,3.23-3.639,4.455-5.779c1.223-2.141,2.17-4.311,2.842-6.512c0.672-2.203,1.049-4.373,1.131-6.514
		s-0.229-4.066-0.928-5.779c-0.701-1.711-1.852-3.088-3.449-4.127c-1.602-1.041-3.725-1.56-6.375-1.56
		c-2.649,0-5.092,0.521-7.324,1.56c-2.234,1.039-4.224,2.416-5.969,4.127c-1.745,1.713-3.229,3.639-4.453,5.779
		C333.661,39.602,332.713,41.771,332.042,43.975z"/>
	<path fill="#3D7A3B" d="M377.468,34.189h5.199l-1.307,4.279h0.123c1.391-1.752,3.122-3.025,5.2-3.82
		c2.078-0.797,4.218-1.193,6.418-1.193c2.447,0,4.439,0.449,5.98,1.346c1.541,0.897,2.68,2.11,3.416,3.639
		c0.736,1.529,1.104,3.293,1.106,5.291c0.003,1.998-0.338,4.119-1.021,6.36c-0.686,2.242-1.627,4.363-2.828,6.359
		c-1.201,1.998-2.629,3.739-4.285,5.229c-1.656,1.488-3.524,2.672-5.606,3.547c-2.082,0.877-4.326,1.313-6.73,1.313
		c-0.815,0-1.668-0.082-2.555-0.244c-0.89-0.162-1.742-0.438-2.562-0.823c-0.819-0.39-1.553-0.896-2.194-1.529
		c-0.643-0.633-1.107-1.416-1.392-2.355h-0.123l-4.979,16.328h-5.197L377.468,34.189z M397.192,49.723
		c0.446-1.469,0.69-2.904,0.733-4.312c0.041-1.406-0.168-2.66-0.627-3.761s-1.211-1.978-2.256-2.629s-2.402-0.979-4.074-0.979
		c-1.752,0-3.348,0.347-4.781,1.04c-1.436,0.693-2.711,1.602-3.825,2.721c-1.117,1.122-2.066,2.396-2.849,3.823
		c-0.782,1.429-1.396,2.875-1.844,4.342c-0.473,1.552-0.746,3.05-0.822,4.494c-0.073,1.449,0.119,2.724,0.578,3.822
		c0.459,1.102,1.217,1.987,2.277,2.659c1.057,0.675,2.484,1.011,4.277,1.011c1.754,0,3.348-0.347,4.782-1.039
		s2.691-1.61,3.773-2.752s2.01-2.447,2.785-3.914C396.097,52.779,396.72,51.271,397.192,49.723z"/>
	<path fill="#3D7A3B" d="M433.995,55.777c-1.764,3.506-4.111,6.176-7.039,8.01c-2.93,1.836-6.193,2.752-9.789,2.752
		c-2.533,0-4.602-0.418-6.205-1.252c-1.604-0.836-2.813-1.988-3.635-3.457c-0.818-1.467-1.234-3.219-1.246-5.258
		s0.309-4.26,0.961-6.666c0.721-2.365,1.758-4.557,3.107-6.574c1.35-2.02,2.909-3.762,4.684-5.229
		c1.771-1.469,3.688-2.609,5.752-3.426s4.176-1.224,6.336-1.224c2.814,0,4.971,0.581,6.471,1.743s2.537,2.641,3.113,4.434
		c0.572,1.795,0.75,3.751,0.531,5.871c-0.217,2.121-0.66,4.139-1.326,6.055h-23.666c-0.465,1.387-0.701,2.701-0.715,3.945
		c-0.012,1.244,0.242,2.344,0.768,3.303c0.521,0.957,1.328,1.723,2.418,2.293c1.091,0.57,2.49,0.855,4.203,0.855
		c2.16,0,4.109-0.51,5.851-1.529c1.735-1.018,3.146-2.568,4.229-4.646H433.995L433.995,55.777z M431.606,46.971
		c0.288-1.223,0.368-2.385,0.235-3.486c-0.133-1.101-0.477-2.047-1.026-2.842c-0.554-0.797-1.31-1.428-2.267-1.896
		c-0.959-0.469-2.07-0.703-3.332-0.703c-1.346,0-2.633,0.234-3.854,0.703c-1.226,0.47-2.349,1.111-3.371,1.927
		c-1.023,0.816-1.924,1.765-2.701,2.845c-0.779,1.08-1.395,2.231-1.85,3.455h18.165V46.971z"/>
	<path fill="#3D7A3B" d="M446.39,34.189h4.894l-1.529,5.015h0.121c1.697-1.957,3.555-3.403,5.574-4.343
		c2.02-0.938,4.17-1.406,6.453-1.406c2.08,0,3.725,0.286,4.938,0.855c1.211,0.571,2.09,1.366,2.637,2.385
		c0.546,1.021,0.775,2.232,0.693,3.64c-0.084,1.407-0.385,2.966-0.906,4.679l-6.342,20.793h-5.199l6.529-21.404
		c0.596-1.957,0.496-3.506-0.295-4.647c-0.795-1.142-2.189-1.713-4.188-1.713c-1.59,0-3.041,0.245-4.352,0.733
		c-1.311,0.49-2.492,1.184-3.539,2.08c-1.049,0.896-1.949,1.947-2.703,3.148c-0.756,1.203-1.35,2.518-1.785,3.945l-5.444,17.857
		h-5.199L446.39,34.189z"/>
	<path fill="#3D7A3B" d="M523.282,34.922c0.629-3.139,0.19-5.412-1.314-6.818c-1.508-1.406-3.77-2.109-6.787-2.109
		c-1.223,0-2.463,0.122-3.721,0.367c-1.256,0.244-2.432,0.652-3.521,1.223c-1.093,0.57-2.06,1.336-2.902,2.293
		c-0.842,0.958-1.48,2.15-1.916,3.577c-0.41,1.346-0.346,2.438,0.193,3.272c0.54,0.836,1.393,1.52,2.557,2.049
		c1.162,0.529,2.527,0.969,4.094,1.313c1.566,0.347,3.162,0.726,4.791,1.132c1.629,0.407,3.195,0.887,4.699,1.437
		c1.504,0.551,2.764,1.295,3.783,2.231c1.018,0.939,1.705,2.131,2.059,3.578c0.354,1.447,0.207,3.232-0.438,5.352
		c-0.709,2.324-1.837,4.312-3.38,5.964c-1.543,1.649-3.289,2.995-5.235,4.034c-1.947,1.039-4.006,1.806-6.174,2.293
		c-2.166,0.49-4.25,0.734-6.246,0.734c-2.447,0-4.668-0.307-6.662-0.918c-1.996-0.611-3.625-1.549-4.892-2.812
		c-1.266-1.263-2.082-2.863-2.448-4.802c-0.369-1.936-0.148-4.229,0.659-6.879h5.505c-0.56,1.834-0.685,3.414-0.375,4.738
		c0.309,1.326,0.916,2.416,1.815,3.271c0.9,0.856,2.053,1.49,3.457,1.896c1.404,0.408,2.941,0.611,4.615,0.611
		c1.303,0,2.656-0.123,4.057-0.367c1.398-0.244,2.717-0.662,3.959-1.254c1.24-0.59,2.342-1.396,3.308-2.414
		c0.961-1.021,1.688-2.324,2.172-3.914c0.459-1.508,0.434-2.731-0.074-3.67c-0.51-0.938-1.326-1.701-2.449-2.293
		c-1.125-0.593-2.465-1.08-4.018-1.47c-1.556-0.387-3.15-0.764-4.793-1.131c-1.642-0.367-3.219-0.805-4.734-1.313
		c-1.518-0.511-2.807-1.192-3.871-2.049c-1.063-0.854-1.793-1.937-2.19-3.241c-0.396-1.305-0.291-2.955,0.319-4.953
		c0.67-2.201,1.701-4.107,3.088-5.718c1.39-1.61,2.984-2.937,4.791-3.976c1.806-1.039,3.732-1.812,5.785-2.324
		c2.052-0.508,4.074-0.764,6.072-0.764c2.242,0,4.24,0.266,5.996,0.795c1.754,0.529,3.17,1.366,4.25,2.506
		c1.078,1.143,1.781,2.58,2.108,4.312c0.326,1.732,0.164,3.803-0.485,6.207h-5.506V34.922z"/>
	<path fill="#3D7A3B" d="M530.479,50.027c0.709-2.322,1.696-4.494,2.965-6.512c1.268-2.02,2.78-3.771,4.539-5.261
		c1.76-1.487,3.717-2.659,5.873-3.517c2.157-0.855,4.5-1.284,7.026-1.284c2.486,0,4.56,0.429,6.213,1.284
		c1.656,0.855,2.908,2.029,3.761,3.517c0.85,1.489,1.295,3.241,1.33,5.261c0.036,2.018-0.3,4.188-1.009,6.512
		c-0.709,2.324-1.692,4.486-2.955,6.481c-1.262,1.998-2.771,3.742-4.53,5.23c-1.759,1.487-3.728,2.659-5.902,3.516
		c-2.18,0.854-4.512,1.283-6.998,1.283c-2.527,0-4.607-0.429-6.242-1.283s-2.879-2.026-3.729-3.516
		c-0.853-1.488-1.299-3.232-1.342-5.23C529.435,54.514,529.769,52.352,530.479,50.027z M535.981,50.027
		c-0.584,1.918-0.851,3.619-0.794,5.106c0.056,1.488,0.38,2.732,0.974,3.73c0.59,1,1.408,1.764,2.449,2.293
		c1.041,0.53,2.233,0.795,3.58,0.795c1.346,0,2.698-0.265,4.063-0.795c1.363-0.529,2.646-1.293,3.85-2.293
		c1.199-0.998,2.283-2.242,3.246-3.73c0.963-1.487,1.738-3.188,2.322-5.106c0.584-1.916,0.85-3.617,0.793-5.105
		s-0.377-2.742-0.961-3.761c-0.588-1.019-1.4-1.794-2.44-2.324c-1.041-0.528-2.234-0.795-3.58-0.795
		c-1.347,0-2.701,0.267-4.064,0.795c-1.365,0.53-2.65,1.306-3.856,2.324c-1.209,1.019-2.296,2.272-3.259,3.761
		C537.339,46.41,536.565,48.111,535.981,50.027z"/>
	<path fill="#3D7A3B" d="M588.655,65.807h-4.894l1.529-5.016h-0.123c-1.697,1.957-3.557,3.404-5.574,4.342
		c-2.02,0.938-4.172,1.406-6.453,1.406c-2.08,0-3.725-0.285-4.938-0.855c-1.213-0.569-2.092-1.365-2.635-2.385
		c-0.547-1.02-0.779-2.232-0.695-3.639c0.082-1.406,0.385-2.967,0.906-4.678l6.344-20.793h5.197l-6.527,21.404
		c-0.598,1.957-0.5,3.506,0.293,4.646c0.793,1.143,2.189,1.713,4.188,1.713c1.59,0,3.039-0.244,4.352-0.734
		c1.312-0.488,2.49-1.182,3.539-2.078c1.049-0.896,1.949-1.947,2.703-3.149c0.754-1.201,1.35-2.517,1.785-3.943l5.446-17.858h5.197
		L588.655,65.807z"/>
	<path fill="#3D7A3B" d="M605.942,34.189h4.893l-2.033,6.666h0.121c2.047-2.568,4.176-4.465,6.383-5.688
		c2.209-1.224,4.707-1.794,7.494-1.713l-1.68,5.504c-2.078,0-3.939,0.286-5.58,0.856c-1.644,0.57-3.08,1.406-4.312,2.506
		c-1.231,1.103-2.297,2.447-3.188,4.037c-0.896,1.591-1.646,3.386-2.254,5.382l-4.289,14.065h-5.199L605.942,34.189z"/>
	<path fill="#3D7A3B" d="M643.759,44.34c0.201-1.996-0.192-3.546-1.182-4.646c-0.989-1.102-2.564-1.651-4.726-1.651
		c-1.875,0-3.553,0.347-5.024,1.04c-1.478,0.693-2.767,1.609-3.867,2.752c-1.104,1.141-2.045,2.456-2.824,3.943
		c-0.78,1.488-1.412,3.027-1.896,4.617c-0.447,1.47-0.711,2.896-0.787,4.281c-0.076,1.387,0.088,2.621,0.492,3.699
		c0.403,1.082,1.088,1.947,2.051,2.6c0.963,0.653,2.279,0.979,3.953,0.979c2.526,0,4.731-0.683,6.617-2.05
		c1.885-1.364,3.354-3.25,4.416-5.655h5.319c-1.752,3.873-4.141,6.892-7.164,9.051c-3.022,2.162-6.532,3.24-10.528,3.24
		c-2.406,0-4.414-0.396-6.025-1.19c-1.613-0.795-2.824-1.906-3.631-3.334c-0.809-1.427-1.229-3.127-1.256-5.105
		c-0.031-1.977,0.315-4.148,1.037-6.514c0.723-2.363,1.703-4.576,2.942-6.636c1.238-2.058,2.713-3.853,4.425-5.381
		c1.709-1.528,3.625-2.731,5.747-3.608c2.123-0.877,4.445-1.314,6.976-1.314c1.793,0,3.41,0.215,4.85,0.643
		c1.44,0.428,2.633,1.092,3.584,1.987c0.949,0.897,1.592,2.028,1.93,3.396c0.339,1.367,0.322,2.985-0.047,4.86h-5.382V44.34z"/>
	<path fill="#3D7A3B" d="M678.675,55.777c-1.764,3.506-4.108,6.176-7.039,8.01c-2.93,1.836-6.192,2.752-9.787,2.752
		c-2.534,0-4.602-0.418-6.205-1.252c-1.604-0.836-2.815-1.988-3.635-3.457c-0.819-1.467-1.233-3.219-1.246-5.258
		c-0.012-2.039,0.31-4.26,0.961-6.666c0.722-2.365,1.757-4.557,3.105-6.574c1.35-2.02,2.91-3.762,4.684-5.229
		c1.771-1.469,3.691-2.609,5.754-3.426c2.063-0.816,4.175-1.224,6.337-1.224c2.812,0,4.969,0.581,6.471,1.743
		c1.5,1.162,2.537,2.641,3.111,4.434c0.573,1.795,0.752,3.751,0.532,5.871c-0.219,2.121-0.659,4.139-1.325,6.055h-23.668
		c-0.466,1.387-0.701,2.701-0.716,3.945c-0.012,1.244,0.244,2.344,0.769,3.303c0.521,0.957,1.33,1.723,2.418,2.293
		c1.09,0.57,2.492,0.855,4.205,0.855c2.16,0,4.108-0.51,5.848-1.529c1.738-1.018,3.146-2.568,4.23-4.646H678.675L678.675,55.777z
		 M676.286,46.971c0.291-1.223,0.371-2.385,0.238-3.486c-0.134-1.101-0.478-2.047-1.029-2.842c-0.553-0.797-1.31-1.428-2.267-1.896
		c-0.956-0.469-2.067-0.703-3.331-0.703c-1.347,0-2.632,0.234-3.854,0.703c-1.225,0.47-2.348,1.111-3.371,1.927
		c-1.022,0.816-1.924,1.765-2.701,2.845c-0.778,1.08-1.395,2.231-1.848,3.455h18.163V46.971z"/>
</g>
</svg>
